<?xml version="1.0" encoding="UTF-8" standalone="no"?>
<!DOCTYPE svg PUBLIC "-//W3C//DTD SVG 1.1//EN" "http://www.w3.org/Graphics/SVG/1.1/DTD/svg11.dtd">
<svg width="100%" height="100%" viewBox="0 0 200 200" version="1.1" xmlns="http://www.w3.org/2000/svg" xmlns:xlink="http://www.w3.org/1999/xlink" xml:space="preserve" xmlns:serif="http://www.serif.com/" style="fill-rule:evenodd;clip-rule:evenodd;stroke-linejoin:round;stroke-miterlimit:2;">
    <g id="Layer21">
        <path d="M100,0C155.192,0 200,44.808 200,100C200,155.192 155.192,200 100,200C44.808,200 0,155.192 0,100C0,44.808 44.808,0 100,0ZM99.901,66.1L99.901,136.169L85.847,136.169L85.847,90.594L67.075,136.169L56.434,136.169L37.562,90.594L37.562,136.169L23.508,136.169L23.508,66.1L39.469,66.1L61.755,118.2L84.04,66.1L99.901,66.1ZM158.724,136.169L133.226,104.949L133.226,136.169L119.172,136.169L119.172,66.1L133.226,66.1L133.226,97.521L158.724,66.1L175.689,66.1L146.778,100.833L176.492,136.169L158.724,136.169Z" style="fill:rgb(18,17,12);"/>
    </g>
</svg>
